<?xml version="1.0" encoding="iso-8859-1"?>
<!-- Generator: Adobe Illustrator 19.0.0, SVG Export Plug-In . SVG Version: 6.00 Build 0)  -->
<svg version="1.1" id="Layer_1" xmlns="http://www.w3.org/2000/svg" xmlns:xlink="http://www.w3.org/1999/xlink" x="0px" y="0px"
	 viewBox="0 0 512 512" style="enable-background:new 0 0 512 512;" xml:space="preserve">
<g>
	<rect x="39.947" y="267.253" style="fill:#12728F;" width="39.756" height="45.011"/>
	<polyline style="fill:#12728F;" points="301.011,346.022 382.031,346.022 359.525,458.549 301.011,458.549 	"/>
</g>
<rect x="359.525" y="220.588" style="fill:#73DCE6;" width="40.51" height="237.962"/>
<path style="fill:#48BDD2;" d="M323.517,492.308c0,6.189-5.064,11.253-11.253,11.253H19.692c-6.189,0-11.253-5.064-11.253-11.253
	V312.264c0-6.189,5.064-11.253,11.253-11.253h292.571c6.189,0,11.253,5.064,11.253,11.253V492.308z"/>
<circle style="fill:#12728F;" cx="165.978" cy="402.286" r="56.264"/>
<path style="fill:#042431;" d="M165.978,419.165c-9.307,0-16.879-7.572-16.879-16.879c0-9.307,7.572-16.879,16.879-16.879
	s16.879,7.572,16.879,16.879C182.857,411.593,175.285,419.165,165.978,419.165z"/>
<path style="fill:#FFB05F;" d="M503.56,132.22c0,61.464-44.798,112.463-103.524,122.131c-6.591,1.085-13.358,1.65-20.256,1.65
	C311.419,256,256,200.581,256,132.22S311.419,8.44,379.78,8.44S503.56,63.858,503.56,132.22z"/>
<path style="fill:#FFFFFF;" d="M379.78,165.978c-18.614,0-33.758-15.144-33.758-33.758s15.144-33.758,33.758-33.758
	s33.758,15.144,33.758,33.758S398.395,165.978,379.78,165.978z"/>
<path d="M359.525,466.989c-4.662,0-8.44-3.778-8.44-8.44V254.341c0-4.662,3.778-8.44,8.44-8.44s8.44,3.778,8.44,8.44v204.208
	C367.965,463.211,364.187,466.989,359.525,466.989z"/>
<path d="M400.035,466.989h-76.519c-4.662,0-8.44-3.778-8.44-8.44s3.778-8.44,8.44-8.44h68.079V254.341c0-4.662,3.778-8.44,8.44-8.44
	s8.44,3.778,8.44,8.44v204.208C408.475,463.211,404.697,466.989,400.035,466.989z"/>
<path d="M312.264,512H19.692C8.835,512,0,503.165,0,492.308V312.264c0-10.858,8.835-19.692,19.692-19.692h292.571
	c10.858,0,19.692,8.835,19.692,19.692v180.044C331.956,503.165,323.122,512,312.264,512z M19.692,309.451
	c-1.525,0-2.813,1.288-2.813,2.813v180.044c0,1.525,1.288,2.813,2.813,2.813h292.571c1.525,0,2.813-1.288,2.813-2.813V312.264
	c0-1.525-1.288-2.813-2.813-2.813H19.692z"/>
<path d="M165.978,466.989c-35.678,0-64.703-29.025-64.703-64.703s29.025-64.703,64.703-64.703s64.703,29.025,64.703,64.703
	S201.656,466.989,165.978,466.989z M165.978,354.462c-26.371,0-47.824,21.453-47.824,47.824s21.453,47.824,47.824,47.824
	s47.824-21.453,47.824-47.824S192.349,354.462,165.978,354.462z"/>
<path d="M165.978,427.604c-13.961,0-25.319-11.358-25.319-25.319s11.357-25.319,25.319-25.319c13.961,0,25.319,11.359,25.319,25.319
	S179.939,427.604,165.978,427.604z M165.978,393.846c-4.654,0-8.44,3.785-8.44,8.44s3.785,8.44,8.44,8.44
	c4.654,0,8.44-3.785,8.44-8.44S170.632,393.846,165.978,393.846z"/>
<path d="M267.253,374.154c-9.307,0-16.879-7.571-16.879-16.879c0-9.308,7.572-16.879,16.879-16.879
	c9.307,0,16.879,7.571,16.879,16.879C284.132,366.583,276.56,374.154,267.253,374.154z"/>
<path d="M75.956,275.13H42.198c-4.661,0-8.44-3.778-8.44-8.44s3.779-8.44,8.44-8.44h33.758c4.661,0,8.44,3.778,8.44,8.44
	S80.617,275.13,75.956,275.13z"/>
<path d="M379.78,264.44c-72.907,0-132.22-59.313-132.22-132.22S306.874,0,379.78,0S512,59.313,512,132.22
	c0,31.53-11.282,62.066-31.77,85.98c-20.262,23.651-48.254,39.447-78.823,44.478C394.303,263.848,387.027,264.44,379.78,264.44z
	 M379.78,16.879c-63.599,0-115.341,51.741-115.341,115.341S316.181,247.56,379.78,247.56c6.332,0,12.685-0.518,18.885-1.537
	c55.889-9.2,96.455-57.062,96.455-113.804C495.121,68.62,443.38,16.879,379.78,16.879z"/>
<path d="M379.78,174.418c-23.268,0-42.198-18.929-42.198-42.198s18.929-42.198,42.198-42.198s42.198,18.929,42.198,42.198
	S403.049,174.418,379.78,174.418z M379.78,106.901c-13.96,0-25.319,11.359-25.319,25.319s11.359,25.319,25.319,25.319
	s25.319-11.359,25.319-25.319S393.74,106.901,379.78,106.901z"/>
<path d="M359.525,354.462h-36.009c-4.662,0-8.44-3.778-8.44-8.44s3.778-8.44,8.44-8.44h36.009c4.662,0,8.44,3.778,8.44,8.44
	S364.187,354.462,359.525,354.462z"/>
<path d="M379.78,219.429c-4.662,0-8.44-3.778-8.44-8.44v-11.253c0-4.662,3.778-8.44,8.44-8.44s8.44,3.778,8.44,8.44v11.253
	C388.22,215.651,384.442,219.429,379.78,219.429z"/>
<path d="M426.085,204.386c-2.61,0-5.183-1.206-6.834-3.48l-6.613-9.103c-2.74-3.772-1.903-9.049,1.867-11.788
	c3.772-2.741,9.049-1.904,11.788,1.867l6.613,9.103c2.74,3.772,1.903,9.049-1.867,11.787
	C429.542,203.862,427.806,204.386,426.085,204.386z"/>
<path d="M454.697,165.002c-0.865,0-1.744-0.134-2.61-0.415l-10.702-3.477c-4.432-1.439-6.86-6.201-5.418-10.634
	c1.439-4.434,6.207-6.855,10.634-5.418l10.702,3.477c4.432,1.439,6.86,6.201,5.418,10.634
	C461.563,162.735,458.254,165.002,454.697,165.002z"/>
<path d="M443.99,119.798c-3.557,0-6.866-2.267-8.024-5.835c-1.44-4.432,0.986-9.195,5.418-10.634l10.702-3.477
	c4.428-1.435,9.195,0.985,10.634,5.419c1.44,4.432-0.986,9.195-5.418,10.634l-10.702,3.477
	C445.734,119.664,444.855,119.798,443.99,119.798z"/>
<path d="M419.46,86.039c-1.719,0-3.456-0.524-4.953-1.614c-3.771-2.739-4.607-8.016-1.867-11.788l6.613-9.103
	c2.739-3.77,8.016-4.61,11.788-1.867c3.771,2.739,4.607,8.016,1.867,11.787l-6.613,9.103
	C424.643,84.831,422.069,86.039,419.46,86.039z"/>
<path d="M379.78,73.143c-4.662,0-8.44-3.778-8.44-8.44V53.451c0-4.662,3.778-8.44,8.44-8.44s8.44,3.778,8.44,8.44v11.253
	C388.22,69.365,384.442,73.143,379.78,73.143z"/>
<path d="M340.101,86.039c-2.609,0-5.184-1.206-6.834-3.48l-6.613-9.103c-2.74-3.771-1.903-9.049,1.867-11.787
	c3.772-2.741,9.049-1.904,11.788,1.867l6.613,9.103c2.74,3.772,1.903,9.049-1.867,11.788
	C343.558,85.514,341.821,86.039,340.101,86.039z"/>
<path d="M315.571,119.798c-0.865,0-1.744-0.134-2.609-0.415l-10.702-3.477c-4.432-1.439-6.86-6.201-5.418-10.634
	c1.439-4.435,6.206-6.854,10.634-5.419l10.702,3.477c4.432,1.439,6.86,6.201,5.418,10.634
	C322.436,117.53,319.128,119.798,315.571,119.798z"/>
<path d="M304.864,165.002c-3.557,0-6.866-2.267-8.024-5.835c-1.44-4.432,0.986-9.195,5.418-10.634l10.702-3.477
	c4.428-1.436,9.195,0.985,10.634,5.418c1.44,4.432-0.986,9.195-5.418,10.634l-10.702,3.477
	C306.608,164.869,305.728,165.002,304.864,165.002z"/>
<path d="M333.475,204.386c-1.719,0-3.456-0.524-4.953-1.614c-3.771-2.739-4.607-8.016-1.867-11.787l6.613-9.103
	c2.738-3.771,8.016-4.61,11.788-1.867c3.771,2.739,4.607,8.016,1.867,11.788l-6.613,9.103
	C338.658,203.178,336.085,204.386,333.475,204.386z"/>
<g>
</g>
<g>
</g>
<g>
</g>
<g>
</g>
<g>
</g>
<g>
</g>
<g>
</g>
<g>
</g>
<g>
</g>
<g>
</g>
<g>
</g>
<g>
</g>
<g>
</g>
<g>
</g>
<g>
</g>
</svg>
